<?xml version="1.0" encoding="UTF-8" standalone="no"?>
<!-- Created with Inkscape (http://www.inkscape.org/) -->

<svg
   xmlns:dc="http://purl.org/dc/elements/1.1/"
   xmlns:cc="http://creativecommons.org/ns#"
   xmlns:rdf="http://www.w3.org/1999/02/22-rdf-syntax-ns#"
   xmlns:svg="http://www.w3.org/2000/svg"
   xmlns="http://www.w3.org/2000/svg"
   xmlns:sodipodi="http://sodipodi.sourceforge.net/DTD/sodipodi-0.dtd"
   xmlns:inkscape="http://www.inkscape.org/namespaces/inkscape"
   width="95mm"
   height="95mm"
   viewBox="0 0 95 95"
   version="1.1"
   id="svg8"
   inkscape:version="0.92.2 (5c3e80d, 2017-08-06)"
   sodipodi:docname="logo.svg">
  <defs
     id="defs2" />
  <sodipodi:namedview
     id="base"
     pagecolor="#ffffff"
     bordercolor="#666666"
     borderopacity="1.0"
     inkscape:pageopacity="0.0"
     inkscape:pageshadow="2"
     inkscape:zoom="1.979899"
     inkscape:cx="173.31789"
     inkscape:cy="167.78496"
     inkscape:document-units="mm"
     inkscape:current-layer="layer1"
     showgrid="false"
     inkscape:window-width="1920"
     inkscape:window-height="1013"
     inkscape:window-x="-9"
     inkscape:window-y="-9"
     inkscape:window-maximized="1" />
  <metadata
     id="metadata5">
    <rdf:RDF>
      <cc:Work
         rdf:about="">
        <dc:format>image/svg+xml</dc:format>
        <dc:type
           rdf:resource="http://purl.org/dc/dcmitype/StillImage" />
        <dc:title></dc:title>
      </cc:Work>
    </rdf:RDF>
  </metadata>
  <g
     inkscape:label="Layer 1"
     inkscape:groupmode="layer"
     id="layer1"
     transform="translate(0,-202)">
    <g
       id="layer1-7"
       inkscape:label="Layer 1"
       transform="translate(-12.548809,147.25949)">
      <circle
         r="47.5"
         cy="102.24051"
         cx="60.048809"
         id="path825"
         style="opacity:1;fill:#ffff00;fill-opacity:1;stroke:#000001;stroke-width:0;stroke-miterlimit:4;stroke-dasharray:none;stroke-opacity:1" />
      <g
         transform="translate(-36.51367,14.388623)"
         inkscape:label="Layer 1"
         id="layer1-9">
        <path
           inkscape:connector-curvature="0"
           id="path974"
           transform="scale(0.26458333)"
           style="fill:#000000;stroke-width:0.80000001"
           d="m 391.7168,168.0625 c -0.70368,-0.0817 -1.44973,0.29131 -2.14649,1.13086 -0.54776,0.66 -1.67717,1.20117 -2.50976,1.20117 -0.83256,0 -2.85843,1.26268 -4.50196,2.80664 -2.89111,2.71594 -2.93794,2.84599 -1.43554,4 2.12659,1.63346 2.14987,1.62795 7.82226,-2.17773 2.76378,-1.8543 5.14355,-3.44518 5.28907,-3.53321 0.14549,-0.088 -0.13585,-0.91044 -0.62696,-1.82812 -0.52522,-0.98138 -1.18695,-1.51794 -1.89062,-1.59961 z m -64.21485,0.29297 c -0.32222,0.0198 -0.66281,0.0638 -1.01757,0.13476 -2.18125,0.43626 -2.51368,0.83782 -2.51368,3.02539 0,3.27416 -1.93677,5.96584 -5.30468,7.37305 -2.75861,1.15262 -3.03267,1.76713 -2.19141,4.90625 0.60558,2.25975 1.68676,2.27538 4.04492,0.0606 1.54153,-1.44821 1.85156,-1.52144 1.85156,-0.42969 0,1.76315 -1.93719,2.67021 -7.20117,3.36914 -5.70458,0.75743 -7.36079,1.66227 -7.04883,3.85352 0.23675,1.66294 0.58553,1.73665 7.34375,1.53906 7.04244,-0.20592 7.09081,-0.1944 6.51758,1.59961 -0.31765,0.99411 -1.11741,4.32625 -1.7793,7.40625 -1.41448,6.58299 -2.06725,7.53616 -4.01367,5.86328 -2.63257,-2.2626 -4.35832,-2.41013 -6.34375,-0.54492 -1.0316,0.96914 -1.875,2.19001 -1.875,2.71484 0,1.00634 4.88669,4.51588 9.59961,6.89258 3.72689,1.87945 4.59357,1.82297 7.62891,-0.49219 2.14363,-1.63503 2.66718,-2.68345 3.10742,-6.20703 0.83334,-6.66981 1.10471,-6.85572 7.01563,-4.8457 5.11233,1.73846 20.14764,3.82306 21.50781,2.98242 1.39078,-0.85955 0.75095,-4.26517 -1.03711,-5.51758 -1.06805,-0.74809 -3.4779,-1.24414 -6.0332,-1.24414 -2.67512,0 -5.41639,-0.59537 -7.38868,-1.60156 -1.72494,-0.88 -3.66495,-1.59961 -4.31054,-1.59961 -0.64559,0 -1.88279,-0.9 -2.74805,-2 -0.86527,-1.1 -2.15075,-2 -2.85742,-2 -1.59427,0 -1.624,-0.76028 -0.11133,-2.91992 0.88026,-1.25676 2.28035,-1.76869 5.58789,-2.04297 4.95202,-0.41066 7.63867,-2.2251 7.63867,-5.16016 0,-2.15513 -1.56322,-2.43778 -4.22851,-0.76367 -0.97452,0.61211 -3.66837,1.28032 -5.98633,1.48438 l -4.21485,0.37109 0.51954,-2.88477 c 0.72715,-4.04224 1.73103,-5.04951 4.4375,-4.45507 2.09689,0.46055 2.27343,0.31558 2.27343,-1.86719 0,-3.25233 -1.83043,-4.67794 -4.46289,-3.47852 -2.63582,1.20096 -2.73828,1.17946 -2.73828,-0.58398 0,-1.98213 -1.41239,-3.07577 -3.66797,-2.9375 z m 72.10743,0.83789 c -2.27059,0 -2.39266,0.19389 -3.28516,5.12891 -0.88381,4.88692 -2.44539,7.27148 -4.75781,7.27148 -0.49304,0 -3.57282,-0.68573 -6.84571,-1.52539 -10.42226,-2.67386 -12.50546,-2.82641 -13.49023,-0.98633 -1.68926,3.15641 -1.06875,4.79552 2.13867,5.64453 1.65,0.43676 4.67096,1.23484 6.71289,1.77344 3.63213,0.95805 3.67696,1.00911 2.0625,2.31641 -1.62138,1.31308 -1.62699,1.43201 -0.31055,6.85742 1.8045,7.43724 1.77069,8.6104 -0.21289,7.54883 -0.85107,-0.45549 -3.20154,-0.82813 -5.22461,-0.82813 -2.02305,0 -4.98998,-0.54865 -6.59375,-1.21875 -3.24628,-1.35638 -4.68693,-0.67166 -3.88671,1.84961 0.62864,1.98067 7.34479,4.96875 11.16992,4.96875 1.55139,0 5.92457,0.72319 9.71679,1.60742 3.79219,0.88422 7.22608,1.40255 7.63086,1.15235 0.88679,-0.54802 0.95483,-4.3784 0.10157,-5.72071 -0.33566,-0.52808 -1.50034,-1.30019 -2.58789,-1.71679 l -1.97852,-0.75782 2.28125,-0.89257 c 1.5823,-0.6198 2.13451,-1.27837 1.80078,-2.14844 -0.26475,-0.68988 -0.48047,-1.58427 -0.48047,-1.98828 0,-0.40402 -1.04151,-0.73438 -2.31445,-0.73438 -2.51131,0 -3.28715,-1.13771 -3.28711,-4.82617 0,-1.34157 -0.57998,-2.63463 -1.39844,-3.11133 -1.32589,-0.7727 -1.32571,-0.81679 0.0254,-0.83984 1.86002,-0.0317 6.62998,1.97231 7.3086,3.07031 0.29144,0.4716 0.85891,3.73331 1.25976,7.24805 0.43064,3.77593 1.56286,8.21386 2.76758,10.84765 1.12139,2.4516 2.03906,4.87421 2.03906,5.38282 0,0.5086 0.78157,1.75703 1.73828,2.77539 2.10312,2.23868 5.97419,2.50791 6.53125,0.45312 0.20875,-0.77 0.61794,-2.45879 0.90821,-3.75195 0.29011,-1.29316 1.22344,-3.32868 2.07422,-4.52344 2.93094,-4.11615 1.54363,-6.61029 -2.08789,-3.75391 l -2.22461,1.74805 -1.26954,-1.91406 c -1.22689,-1.84715 -2.89929,-6.84851 -3.8125,-11.40625 -0.40748,-2.03457 -0.24734,-2.19922 2.12696,-2.19922 1.41203,0 3.57194,0.59442 4.80078,1.32031 2.76661,1.63427 4.44208,1.06425 5.14844,-1.75 0.75473,-3.00704 -1.06549,-4.73805 -6.79102,-6.45312 -5.03595,-1.50848 -6.28062,-3.04445 -4.76367,-5.87891 1.08813,-2.03318 2.86391,-1.10703 5.45508,2.8457 1.85839,2.83498 3.21957,3.27846 5.8164,1.88868 2.16632,-1.15939 1.94164,-2.271 -1.05273,-5.21094 -1.42998,-1.404 -3.08934,-3.16952 -3.68945,-3.92188 -0.67284,-0.84347 -1.74709,-1.20784 -2.80079,-0.95117 -1.33241,0.3246 -1.97242,-0.1463 -2.9082,-2.13672 -0.95047,-2.02162 -1.69204,-2.55273 -3.56054,-2.55273 z m -26.16407,19.79883 c -1.75658,-0.12663 -2.35832,1.65602 -2.01367,5.75195 0.2439,2.89869 0.82258,4.34528 2.17383,5.43945 1.01518,0.82205 2.76515,1.38225 3.90234,1.25 3.00329,-0.34929 3.26735,-4.3584 0.50391,-7.64257 -1.1233,-1.33496 -2.04102,-2.80099 -2.04102,-3.25782 0,-0.45683 -0.76623,-1.07436 -1.70117,-1.37109 -0.29864,-0.0948 -0.57328,-0.15183 -0.82422,-0.16992 z m 76.75586,5.6875 c -2.30917,0.0854 -8.66133,1.65448 -10.77344,2.75976 -0.80129,0.41935 -3.85641,0.64572 -6.78906,0.50391 -4.19263,-0.20274 -5.43101,0.002 -5.79687,0.95508 -0.74056,1.92985 0.93534,4.16806 3.32812,4.44336 3.63024,0.41769 11.3861,-0.70709 14.90235,-2.16016 1.81338,-0.74937 4.10764,-1.67611 5.09765,-2.05859 1.97155,-0.76171 2.47624,-3.71964 0.74805,-4.38282 -0.1407,-0.054 -0.38692,-0.0727 -0.7168,-0.0605 z m 6.625,2.99023 c -1.83939,0.11619 -2.96637,1.75309 -4.04297,5.46094 -0.66765,2.29935 -1.56855,4.20162 -2.00195,4.22656 -0.4334,0.0248 -1.37355,-0.99245 -2.08984,-2.25976 -1.25991,-2.2291 -2.9983,-2.6604 -6.1211,-1.51954 -1.52145,0.55591 -1.19491,3.95303 0.59961,6.23438 2.42094,3.07775 1.98547,4.10228 -2.5664,6.02539 -3.61864,1.52883 -4.25584,1.60221 -4.83985,0.55859 -1.14852,-2.05226 -3.50535,-1.33219 -5.875,1.79688 -1.24959,1.65 -3.45185,4.12414 -4.89453,5.49609 -3.81419,3.62724 -3.22421,7.50391 1.14258,7.50391 1.40749,0 2.15096,-0.76 3.12695,-3.19922 0.7042,-1.76 1.51064,-3.20013 1.79297,-3.20117 0.28226,-0.001 1.75174,-1.06159 3.26563,-2.35547 1.90117,-1.62486 3.12351,-2.14394 3.95312,-1.67969 0.74899,0.41918 1.8974,0.21734 3.04883,-0.53711 2.68996,-1.76253 2.25817,-0.18965 -0.89063,3.24805 -2.52873,2.76073 -2.77553,2.86274 -3.2539,1.35547 -0.66305,-2.08907 -1.5478,-2.05821 -3.57813,0.12109 -1.91236,2.05271 -2.05428,3.30245 -0.51953,4.57617 0.90452,0.75069 3.54352,7.08646 4.94531,11.87305 0.51969,1.77452 0.96559,1.10254 3.18164,-4.80078 1.19747,-3.19 3.02932,-6.71967 4.07032,-7.84375 1.04095,-1.12408 1.89256,-2.85576 1.89258,-3.84766 0,-0.99189 0.34782,-1.58706 0.77343,-1.32422 0.42558,0.26303 0.54859,1.60369 0.27344,2.98047 -0.43019,2.15078 -0.30563,2.42975 0.89063,1.97071 0.7656,-0.29386 2.26411,-0.53516 3.32812,-0.53516 1.88239,0 1.93359,-0.1694 1.93359,-6.29687 v -6.29883 l 3.11329,-0.49805 c 3.23019,-0.51655 4.08593,-1.57763 4.08593,-5.06445 0,-1.73165 -0.2921,-1.97296 -2,-1.64649 -2.56773,0.49065 -2.55543,-0.7479 0.0352,-3.75976 2.53508,-2.9478 2.27971,-5.35279 -0.67774,-6.38867 -0.79619,-0.27889 -1.48843,-0.40983 -2.10156,-0.3711 z m -187.02734,5.9043 c -0.57327,-0.008 -1.16583,0.19209 -1.80274,0.58984 -3.59356,2.24422 -3.47079,4.95646 0.41602,9.15039 2.52085,2.72005 2.47098,4.65027 -0.21289,8.20508 -2.7443,3.63486 -3.14317,4.02459 -7.0293,6.89844 -4.02253,2.97471 -4.3716,3.47011 -4.38672,6.20117 -0.0138,2.50772 1.43316,3.38727 4.36133,2.65234 2.34951,-0.58969 6.02539,-4.07469 6.02539,-5.71289 0,-2.33201 1.50023,-1.07824 2.8086,2.34766 1.40805,3.68694 1.04004,5.49081 -1.56446,7.65234 -0.68402,0.56769 -1.24414,2.06787 -1.24414,3.33399 0,1.89955 0.33805,2.30078 1.92969,2.30078 2.1271,0 4.84509,-2.82202 8.1543,-8.46875 1.13773,-1.9414 2.38096,-3.53125 2.76367,-3.53125 1.41711,0 2.18819,2.92117 1.76367,6.6875 -0.49461,4.38817 0.22853,5.28113 4.30273,5.30078 3.27021,0.0159 3.5708,-0.94383 2.96485,-9.48047 L 288.55078,230.67969 291,229.66406 c 1.34739,-0.5581 4.13597,-2.56049 6.19531,-4.45117 3.717,-3.41257 3.73691,-3.45835 2.72461,-6.25781 -0.56085,-1.551 -3.26183,-5.01283 -6.00195,-7.69141 -6.00502,-5.87014 -8.66198,-6.35348 -13.55274,-2.46679 -3.37549,2.68233 -4.01573,2.49262 -6.80078,-2.01368 -1.33695,-2.16323 -2.50443,-3.19099 -3.76562,-3.20898 z m 168.09179,3.7793 c -0.7456,-0.0429 -1.67119,0.007 -2.8164,0.125 -9.96423,1.0283 -11.10352,1.36415 -11.10352,3.26953 0,1.73571 0.23212,1.78313 8.40039,1.74609 7.91173,-0.0358 8.39806,-0.13365 8.38672,-1.66992 -0.0179,-2.38805 -0.62986,-3.34209 -2.86719,-3.4707 z m -72.55859,3.5371 c -5.71247,-0.02 -11.44384,1.22297 -16.78711,3.79297 -8.7444,4.20589 -13.33227,8.91574 -17.73242,18.20508 -2.95785,6.24444 -3.74265,8.85446 -4.16406,13.83985 -0.43779,5.17908 -0.71998,6.06753 -1.79688,5.65429 -3.83532,-1.47176 -10.03689,-2.14538 -16.58789,-1.80273 -6.36394,0.33287 -8.22223,0.78285 -13.42969,3.25586 -8.91159,4.23209 -17.59647,13.57504 -20.17187,21.70117 -1.77249,5.59273 -2.34957,17.9331 -1.06055,22.68359 1.82635,6.73071 5.60442,13.17641 10.58008,18.04492 4.83102,4.72715 12.91298,9.32653 16.38867,9.32813 0.99,3.4e-4 1.80078,0.37265 1.80078,0.82813 0,0.93962 -2.04664,4.38738 -4.01953,6.77148 -1.59733,1.93027 -4.48881,10.62886 -5.18554,15.60156 -1.29037,9.20963 4.09876,23.85041 11.38281,30.92969 4.31706,4.19573 13.18644,8.94371 19.42187,10.39648 7.26056,1.69161 16.09206,0.70665 23.09571,-2.57617 6.49891,-3.04622 12.80642,-7.92623 16.07421,-12.4375 l 2.12305,-2.93164 1.90039,2.77344 c 2.93982,4.29037 9.47922,9.46419 15.78125,12.48437 10.50588,5.03479 21.64094,4.69143 32.96289,-1.01562 8.19765,-4.13216 13.53618,-9.42285 17.20508,-17.05078 6.29254,-13.08275 5.4196,-26.49804 -2.50781,-38.53516 -3.12095,-4.73897 -3.20109,-5.23589 -0.83594,-5.24609 2.93741,-0.0127 10.20495,-3.80095 14.76563,-7.69727 8.70478,-7.43673 12.99112,-16.7691 13.01757,-28.34961 0.0199,-8.0624 -2.09537,-17.07229 -4.87695,-20.77148 -9.18799,-12.21904 -18.14166,-17.5364 -30.62695,-18.18946 -6.60061,-0.34508 -12.72838,0.3353 -16.67969,1.85157 -1.1862,0.45522 -1.39844,0.0543 -1.39844,-2.64063 0,-9.84864 -5.35892,-22.47081 -12.11914,-28.54883 -7.53153,-6.77148 -16.99874,-10.31625 -26.51953,-10.34961 z m 99.08399,3.39454 c -3.12795,0.11949 -3.905,0.97508 -3.50977,3.02734 0.19846,1.03061 1.83621,1.73188 6.26563,2.68164 3.29833,0.70727 6.45732,1.13461 7.01953,0.94922 1.86999,-0.6166 2.60091,-3.01164 1.41406,-4.63477 -0.85803,-1.17343 -2.46008,-1.59756 -7.23438,-1.91406 -1.60873,-0.10665 -2.91243,-0.1492 -3.95507,-0.10937 z m -180.57032,1.70507 c 1.57731,0.0558 3.33166,0.793 4.5625,2.1211 2.43436,2.62669 2.45304,3.54422 0.11133,5.74414 -1.01835,0.9567 -2.28778,1.73828 -2.82031,1.73828 -0.88947,0 -2.5293,-3.12736 -2.5293,-4.82422 0,-0.39587 -0.74393,-1.11735 -1.65234,-1.60351 -1.32101,-0.70699 -1.46068,-1.11219 -0.70117,-2.02735 0.68289,-0.82283 1.8025,-1.19181 3.02929,-1.14844 z M 458.25,220.2832 c -1.49724,0.007 -1.91642,0.59236 -2.44922,1.76172 -0.82076,1.80139 -0.76011,2.27642 0.40039,3.125 1.84169,1.3467 1.73355,2.31637 -0.72851,6.51758 -1.92813,3.29007 -2.20718,3.47823 -3.46289,2.3418 -1.71069,-1.54812 -4.7487,-1.60459 -5.32618,-0.0996 -0.23962,0.62445 0.20357,2.11107 0.98438,3.30273 0.78081,1.19166 1.67937,4.36317 1.99609,7.04883 0.46481,3.94191 1.00144,5.24919 2.78711,6.78516 2.10218,1.80822 2.26451,1.832 3.26563,0.46289 0.57936,-0.79235 1.05872,-2.54277 1.0625,-3.88868 0.005,-1.34573 0.82686,-3.88648 1.82617,-5.64648 0.99931,-1.76 2.48549,-4.99922 3.30273,-7.19922 2.22981,-6.00288 2.49892,-6.19959 7.63477,-5.60351 3.80908,0.44208 4.68097,0.28951 5.86914,-1.02344 1.77985,-1.96672 1.00871,-4.04583 -1.73047,-4.66406 -1.16145,-0.26214 -4.09172,-0.94305 -6.51172,-1.51368 -4.84719,-1.14294 -7.42268,-1.71438 -8.91992,-1.70703 z m -183.96484,4.34375 c 0.35562,-0.0731 0.9294,0.55289 1.67187,1.92188 0.999,1.842 1.19004,2.94844 0.62695,3.64453 -1.33678,1.65254 -1.97887,1.1551 -2.47851,-1.92383 -0.3733,-2.30038 -0.27755,-3.54855 0.17969,-3.64258 z m 91.01172,14.9375 a 10.393699,10.393699 0 0 1 10.39257,10.39453 10.393699,10.393699 0 0 1 -4.72461,8.70899 v 39.57422 l 37.93946,-12.06836 a 10.393699,10.393699 0 0 1 6.86718,-7.14258 10.393699,10.393699 0 0 1 13.05664,6.75195 10.393699,10.393699 0 0 1 -6.7539,13.05664 10.393699,10.393699 0 0 1 -9.72461,-1.86523 l -38.73633,12.32227 24.29883,32.37695 a 10.393699,10.393699 0 0 1 9.00586,4.13086 10.393699,10.393699 0 0 1 -2.07422,14.55078 10.393699,10.393699 0 0 1 -14.55273,-2.07422 10.393699,10.393699 0 0 1 -1.44336,-9.79492 l -23.50196,-31.31836 -23.5039,31.31836 a 10.393699,10.393699 0 0 1 -1.44336,9.79687 10.393699,10.393699 0 0 1 -14.55274,2.07422 10.393699,10.393699 0 0 1 -2.07422,-14.55273 10.393699,10.393699 0 0 1 9.00782,-4.12891 l 24.25586,-32.32226 -38.91407,-12.37696 a 10.393699,10.393699 0 0 1 -9.72461,1.86328 10.393699,10.393699 0 0 1 -6.7539,-13.05664 10.393699,10.393699 0 0 1 13.05469,-6.75195 10.393699,10.393699 0 0 1 6.86718,7.14258 l 38.0625,12.10937 v -39.62304 a 10.393699,10.393699 0 0 1 -4.72461,-8.70118 10.393699,10.393699 0 0 1 10.39454,-10.39453 z M 259.40039,354.69727 c -0.16355,0.16355 0.0613,2.59159 0.5,5.39648 0.59754,3.82025 2.43194,8.31193 7.3125,17.90039 6.59511,12.95686 10.97111,19.55586 15.47852,23.3457 1.36349,1.14645 5.71968,5.12423 9.67968,8.83985 7.39061,6.93452 10.61622,9.28295 21.43946,15.60742 3.43211,2.00553 5.8703,3.77353 5.41797,3.92773 -0.53884,0.1835 -0.42517,1.78428 0.33007,4.64258 0.63404,2.39951 1.02724,4.48636 0.875,4.63867 -0.15224,0.15224 -3.2872,0.84383 -6.96875,1.53711 -9.28186,1.74792 -19.45806,4.88755 -21.79101,6.72266 -1.0755,0.84597 -2.21595,1.53906 -2.53321,1.53906 -0.77828,0 -6.98769,5.5778 -7.89453,7.0918 -0.88422,1.47624 -3.71862,9.14287 -3.46093,9.36133 0.10184,0.0863 4.07747,1.98564 8.83593,4.2207 l 8.65235,4.0625 0.95117,-2.16797 c 1.36517,-3.11286 3.8099,-6.56836 4.64648,-6.56836 0.39419,0 2.24222,-0.67062 4.10743,-1.48828 6.87922,-3.01595 7.95117,-3.31364 12.02929,-3.34766 2.2893,-0.0192 5.63492,-0.32069 7.43555,-0.66992 3.12167,-0.60518 3.31556,-0.52466 4.16016,1.71289 0.8448,2.23816 1.04489,2.3196 4.32617,1.77735 1.89221,-0.31268 3.53254,-0.64783 3.64453,-0.7461 0.11198,-0.0984 -0.20051,-1.33619 -0.69336,-2.75 -0.49285,-1.4138 -0.75137,-2.71532 -0.57422,-2.89258 0.17714,-0.17697 4.44845,-0.73808 9.49219,-1.24609 5.04374,-0.50797 11.56779,-1.60506 14.49609,-2.4375 5.84672,-1.66201 8.35008,-1.88472 9.01758,-0.80469 0.24059,0.38926 1.43305,0.89729 2.64844,1.13086 2.22364,0.4272 19.64791,4.72401 25.17968,6.20899 2.76295,0.74169 2.91846,0.93958 2.20118,2.82617 -1.00933,2.6547 -1.09382,2.47477 1.42773,3.07617 1.21002,0.28861 2.78891,0.6997 3.50781,0.91211 0.90641,0.26797 1.47059,-0.26443 1.83985,-1.73633 0.49047,-1.95435 0.76692,-2.0793 3.49219,-1.58789 1.62789,0.2936 5.14735,0.8657 7.82031,1.27344 3.22216,0.49149 6.99777,1.91982 11.20117,4.23633 5.62503,3.09997 6.56535,3.95636 8.33984,7.60156 1.64217,3.37323 2.28589,4.02291 3.59961,3.63086 2.45431,-0.73244 15.71534,-5.72744 15.98633,-6.02149 0.13172,-0.14273 -0.1709,-2.23717 -0.67187,-4.65429 -0.77148,-3.72219 -1.67028,-5.20067 -5.88086,-9.66406 -5.16004,-5.46993 -12.48281,-9.92518 -18.39649,-11.19336 -5.48988,-1.17733 -14.12318,-3.91423 -14.94726,-4.73829 -0.54441,-0.54423 -0.22346,-2.01579 0.98632,-4.50585 1.99824,-4.113 2.02382,-3.94004 -0.70507,-4.97461 -1.82249,-0.69098 -1.48902,-0.97168 4.42968,-3.71875 11.9466,-5.5448 12.79769,-5.97666 14.79883,-7.51368 1.10003,-0.84483 5.15305,-3.57688 9.00586,-6.07031 7.27366,-4.70736 16.25436,-13.0829 19.4707,-18.1582 1.02218,-1.61299 2.24892,-3.17275 2.72461,-3.4668 0.95316,-0.58911 4.38769,-5.77953 6.44141,-9.73242 1.24637,-2.39898 2.85212,-13.86914 1.94141,-13.86914 -1.24483,0 -10.89915,5.548 -21.58399,12.4043 -5.48368,3.51877 -17.86209,9.99609 -19.10351,9.99609 -0.22148,0 -3.84828,2.31954 -8.0586,5.1543 -6.90882,4.65154 -15.97299,9.41662 -33.88281,17.8125 -12.19854,5.71846 -15.05446,6.82378 -21.35547,8.26953 l -6.39844,1.46875 -5.60156,-2.74805 c -15.35802,-7.53581 -21.85358,-11.35026 -33.29687,-19.55664 -3.98811,-2.85997 -12.03284,-8.45381 -17.87696,-12.42969 -9.99594,-6.80043 -18.07239,-12.91953 -25.75586,-19.51367 -10.3356,-8.87028 -21.94488,-17.84808 -22.43945,-17.35351 z m 3.19336,7.31445 c 0.94033,0.12192 5.96916,3.86054 10.57617,7.90039 2.94679,2.58401 11.21029,9.34884 18,14.73633 3.13532,2.48783 13.04651,9.27153 17.24024,11.79883 1.50827,0.90893 3.55613,2.39664 4.55078,3.30664 0.99464,0.91003 4.35548,3.40581 7.46875,5.54687 3.11326,2.14103 7.43482,5.15153 9.60156,6.68945 6.77808,4.811 35.94945,19.55413 43.53906,22.00391 2.42,0.78112 5.65921,2.04475 7.19922,2.80859 1.54001,0.76381 7.66158,2.73882 13.60156,4.39063 5.94002,1.65177 11.27934,3.1387 11.86524,3.30273 0.82446,0.23086 0.71124,0.88607 -0.4961,2.89844 -0.85799,1.43002 -2.54049,4.31043 -3.74023,6.40039 -1.19974,2.09001 -2.4167,3.77243 -2.70508,3.74219 -0.28819,-0.0311 -4.30385,-1.11138 -8.92383,-2.40039 -4.62002,-1.28901 -10.02002,-2.72166 -12,-3.1836 -7.94042,-1.85247 -30.21841,-11.70498 -31.07226,-13.74218 -0.38755,-0.9247 -4.99544,-3.21548 -5.48438,-2.72656 -0.45311,0.45295 -27.41063,-13.12386 -35.23242,-17.74415 -2.74378,-1.62073 -6.70456,-4.50802 -8.80078,-6.41796 -9.58974,-8.73767 -19.62945,-18.90698 -21.31445,-21.58789 -3.01086,-4.79071 -14.39482,-27.30831 -14.00391,-27.69922 0.025,-0.025 0.0682,-0.0316 0.13086,-0.0234 z m 207.26563,16.54297 c 0.0853,-0.006 0.14311,0.006 0.17382,0.0371 0.8439,0.84389 -2.87114,7.7278 -6.67187,12.36328 -2.09186,2.55125 -4.7783,5.94905 -5.97071,7.55078 -4.11407,5.52654 -11.07734,11.70633 -18.62109,16.52734 -13.48463,8.6177 -15.37447,9.75977 -16.1543,9.75977 -0.98347,0 -10.99946,4.6678 -16.28906,7.5918 -2.00402,1.10778 -5.78439,2.56567 -8.40039,3.23828 -2.616,0.67264 -5.29506,1.35871 -5.95508,1.52539 -1.49578,0.3775 -8,-1.85181 -8,-2.74219 0,-0.71108 -0.1413,-0.65364 14.1836,-5.84766 11.4565,-4.15396 22.2926,-10.14489 30.41601,-16.8164 3.19,-2.61986 5.80078,-4.89608 5.80078,-5.0586 0,-0.16252 -9.0382,4.22568 -20.08398,9.75196 -15.1649,7.58713 -22.33937,10.70308 -29.29688,12.72656 -8.3827,2.43802 -9.47625,2.5873 -12.11718,1.64453 l -2.90235,-1.03711 2.40039,-0.97265 c 1.32,-0.53553 3.29844,-1.26992 4.39844,-1.63086 9.8672,-3.23645 19.66519,-7.57768 30.27149,-13.41407 4.55656,-2.50734 9.59952,-5.22535 11.20703,-6.04101 1.60747,-0.81566 3.46306,-1.94335 4.12304,-2.50586 0.66002,-0.56255 5.37093,-3.18577 10.46875,-5.83008 9.03576,-4.68699 24.06843,-13.27545 32.53907,-18.58984 2.02532,-1.27069 3.88322,-2.18631 4.48047,-2.23047 z m -163.8711,18.53906 c -0.10355,0.006 -0.18084,0.0346 -0.23047,0.0879 -0.32336,0.34692 -0.13788,0.79175 0.41211,0.98828 0.55,0.19642 1,0.84981 1,1.45117 0,0.60133 3.69117,4.80352 8.20117,9.33789 12.70134,12.76993 31.22105,24.18719 45.79883,28.23438 6.40566,1.77838 12.49521,3.81254 18.80078,6.28125 6.00514,2.35113 10.70891,2.87218 8.77149,0.9707 -1.51824,-1.49011 -17.06272,-9.25195 -18.5293,-9.25195 -0.61725,0 -1.46481,-0.3006 -1.88281,-0.66797 -0.418,-0.36726 -2.55977,-1.31672 -4.75977,-2.11133 -6.50199,-2.34848 -30.03843,-14.70217 -34.80078,-18.26562 -2.42,-1.81077 -6.37883,-5.13334 -8.79883,-7.38477 -5.07642,-4.7228 -12.4291,-9.76062 -13.98242,-9.66992 z m 18.87305,34.58984 c 0.41539,-0.0392 2.2092,0.65624 4.34375,1.70313 l 4.43554,2.17578 -2.63476,0.95508 c -1.44949,0.52531 -3.013,0.98161 -3.47461,1.01562 -0.72152,0.0523 -2.76172,-4.22227 -2.76172,-5.78711 0,-0.0367 0.0325,-0.0569 0.0918,-0.0625 z m 87.03906,3.11914 c 0.0459,0.007 0.0703,0.0231 0.0703,0.0508 0,0.22185 -0.72824,1.82982 -1.61718,3.57226 -0.88895,1.74248 -1.69792,3.13293 -1.79883,3.08984 -0.10107,-0.0431 -2.16399,-0.70221 -4.58399,-1.46484 l -4.40039,-1.38672 2.76758,-0.63672 c 1.52243,-0.34953 4.31364,-1.29655 6.20117,-2.10546 1.65163,-0.70799 3.03993,-1.16476 3.36133,-1.11915 z m -72.60742,2.04102 11.13867,5.58008 c 6.12604,3.06886 11.13867,5.77846 11.13867,6.02148 0,0.24416 -0.3082,0.25306 -0.68554,0.0195 -0.37736,-0.23323 -1.89076,-0.08 -3.36133,0.3418 -1.47057,0.42172 -7.37121,1.35973 -13.11328,2.08398 -5.74208,0.72446 -10.65227,1.64728 -10.91211,2.05079 -0.25984,0.4035 -1.39292,-1.35574 -2.51758,-3.90821 -3.63453,-8.24863 -3.76983,-7.72844 2.63672,-10.09375 z m -22.73438,7.94922 c 0.99416,0 2.01765,1.49726 3.41602,4.99805 1.09776,2.74824 2.11503,5.26793 2.26172,5.5996 0.14667,0.33189 -0.0337,0.59741 -0.40039,0.58985 -0.36667,-0.007 -2.02344,-2.52708 -3.68164,-5.59961 -2.563,-4.74905 -2.802,-5.58789 -1.59571,-5.58789 z m -6.32031,0.80078 c 0.9743,0 2.53191,1.66503 4.41797,4.7207 1.60254,2.59631 2.91406,4.93541 2.91406,5.19922 0,1.3917 -1.59114,-0.11319 -5.01953,-4.75195 -3.13275,-4.23878 -3.54723,-5.16797 -2.3125,-5.16797 z m -5.69922,1.59961 c 0.6505,0 4.86234,5.23888 6.8711,8.54687 1.2094,1.99166 -0.64032,1.00151 -2.18946,-1.17187 -0.85259,-1.19618 -2.42647,-3.34342 -3.49609,-4.77344 -1.06963,-1.42998 -1.60319,-2.60156 -1.18555,-2.60156 z m 114.40235,1.60156 c 0.56556,0 1.02929,0.28844 1.02929,0.64258 0,0.35407 -1.61959,2.944 -3.59961,5.75586 -1.97998,2.81185 -3.60156,4.86971 -3.60156,4.57226 0,-1.56168 5.29333,-10.9707 6.17188,-10.9707 z m -120.02539,0.11914 c 0.59836,-0.0546 1.50253,1.17605 5.0371,6.02539 3.68127,5.05021 1.62981,4.81272 -2.67773,-0.31054 -2.6075,-3.1013 -3.5153,-4.74444 -2.94141,-5.31836 0.21783,-0.21783 0.38258,-0.37828 0.58204,-0.39649 z m 125.66796,2.08399 c 0.17776,-0.0265 0.32572,0.0171 0.44141,0.13281 0.46273,0.46276 -0.73759,2.43992 -3.1543,5.19531 -4.2229,4.8147 -6.51413,6.0961 -3.33789,1.86719 1.07403,-1.42998 2.80646,-3.77203 3.84961,-5.20508 0.88112,-1.21042 1.6679,-1.91088 2.20117,-1.99023 z m -131.74804,1.17773 c 0.84578,0.12972 2.24646,1.3216 4.75781,3.96875 5.32937,5.61759 3.75586,6.20714 -2.19922,0.82422 -3.16715,-2.86273 -3.93962,-3.98036 -3.19531,-4.625 0.0912,-0.079 0.19258,-0.13307 0.30664,-0.16016 0.0998,-0.0237 0.20925,-0.0241 0.33008,-0.008 z m 137.67383,0.7207 c 0.1318,-0.019 0.23419,0.004 0.30468,0.0742 0.23891,0.23891 -1.07517,2.18837 -2.91992,4.33008 -4.0676,4.72233 -6.93395,5.90184 -3.3457,1.37695 2.6915,-3.39409 5.03833,-5.64819 5.96094,-5.78125 z m 5.48437,2.47071 c 0.31778,0.0308 0.64249,0.17372 0.87891,0.41015 0.48555,0.48556 -0.82441,2.12259 -3.59571,4.49024 -2.39882,2.04933 -4.6093,3.72656 -4.91015,3.72656 -0.6141,0 5.70305,-7.72055 6.94531,-8.48828 0.10962,-0.0678 0.23504,-0.11076 0.36914,-0.13086 0.10058,-0.0151 0.20657,-0.0159 0.3125,-0.008 z m -148.66016,1.01953 c 0.9097,0.10123 2.75232,1.37676 4.94141,3.44531 l 4.0957,3.86719 -1.60742,2.85547 -1.60547,2.85547 -5.39453,-2.71875 c -2.96674,-1.49564 -5.39258,-2.93503 -5.39258,-3.19922 0,-1.20688 3.57572,-6.67127 4.63086,-7.07617 0.0901,-0.0346 0.20208,-0.0438 0.33203,-0.0293 z m 154.57618,2.2539 c 1.8257,0.60858 0.90596,1.97527 -3.47266,5.1543 -4.85658,3.526 -5.66797,3.90663 -5.66797,2.66211 0,-1.07029 8.24,-8.11633 9.14063,-7.81641 z m 4.33789,3.80274 2.50586,2.85547 c 1.67176,1.90405 2.42537,3.51717 2.26171,4.84375 -0.1987,1.61166 -1.24917,2.4144 -5.53124,4.23633 l -5.28321,2.25 -1.52539,-3.31836 -1.52539,-3.31641 4.54883,-3.77539 z m 44.02148,33.55078 c 0.0337,0.27825 0.19291,0.5397 0.36719,0.80078 h 0.0176 c -0.1191,-0.27211 -0.21847,-0.50468 -0.30274,-0.7168 -0.007,-0.009 -0.0278,-0.0542 -0.043,-0.084 z m 0.082,0.084 c 0.006,0.007 -0.0127,-0.073 -0.0117,-0.084 h -0.0234 c 0.0131,0.0304 0.0254,0.0592 0.0351,0.084 z" />
        <path
           style="opacity:1;fill:#ff0000;fill-opacity:1;stroke:#000000;stroke-width:1.88976383;stroke-miterlimit:4;stroke-dasharray:none;stroke-opacity:1"
           d="m 326.02454,390.38746 c -6.11154,-1.07625 -15.05403,-5.44035 -20.32776,-9.92035 -7.88601,-6.69909 -14.0275,-23.12616 -12.19672,-32.62338 1.26201,-6.54674 3.37099,-12.04285 6.28437,-16.37742 1.26692,-1.88494 2.4042,-3.93074 2.5273,-4.54622 0.24389,-1.21947 0.30797,-1.18166 -2.8793,-1.69861 -3.44522,-0.55878 -10.17633,-4.55898 -14.48989,-8.61113 -4.76503,-4.47627 -8.46134,-10.26296 -10.57653,-16.5579 -0.99731,-2.96806 -1.01952,-3.20286 -0.99669,-10.53572 0.0272,-8.7517 0.67037,-12.66881 2.81052,-17.11836 3.56616,-7.41436 11.48017,-14.97877 19.70195,-18.83163 5.05552,-2.36909 6.47136,-2.61088 15.32132,-2.61647 7.12741,-0.004 8.15344,0.0733 11.04737,0.83806 3.82611,1.01106 3.95701,0.92744 4.30907,-2.75245 0.6716,-7.02 1.71496,-10.65181 4.86447,-16.93264 4.52633,-9.0265 9.71463,-14.00281 18.58764,-17.82818 4.64277,-2.00161 8.27017,-2.80596 13.69145,-3.03601 9.74291,-0.41342 18.31844,2.42699 26.24094,8.69162 5.30667,4.19618 9.39869,10.6106 11.97829,18.77648 1.02373,3.24067 1.95395,8.72615 1.95724,11.54173 0.003,2.38212 0.39466,2.74254 2.26459,2.08279 4.40228,-1.55322 14.73541,-2.07432 20.63716,-1.04073 8.97464,1.57174 16.11619,5.96817 22.97627,14.1445 4.16131,4.95975 5.3146,7.43876 6.6438,14.28091 2.89106,14.88198 -0.76693,27.59824 -10.56581,36.7299 -4.83399,4.50484 -12.9041,8.96334 -16.2241,8.96334 -2.17951,0 -2.08867,0.9299 0.48269,4.94149 6.55098,10.2202 8.47398,20.44307 5.78893,30.77465 -3.55579,13.68205 -11.89441,22.58996 -25.70814,27.46327 -7.96124,2.80863 -15.95181,2.86209 -23.56099,0.15765 -7.39519,-2.62838 -16.05297,-9.02873 -19.75459,-14.60377 -0.71121,-1.07116 -1.41586,-1.94757 -1.56589,-1.94757 -0.15002,0 -1.10608,1.12407 -2.12457,2.49793 -2.39425,3.22967 -5.75645,6.29509 -10.02408,9.13925 -6.94065,4.62559 -12.71132,6.52776 -20.51316,6.76168 -2.55358,0.0766 -5.52679,-0.0165 -6.60715,-0.20671 z m 11.04499,-29.10509 c 3.87942,-2.11144 5.57631,-5.34458 5.29893,-10.09621 l -0.15999,-2.74085 11.57352,-15.47463 11.57351,-15.47462 11.46826,15.28706 11.46825,15.28707 0.027,3.58042 c 0.0247,3.26999 0.1183,3.74525 1.08018,5.48168 1.06803,1.92802 2.57459,3.34895 4.83966,4.56457 0.94344,0.50632 1.99451,0.67037 4.28572,0.66892 2.5962,-0.002 3.2989,-0.14007 4.85357,-0.95612 5.09233,-2.67296 7.16263,-8.85183 4.67176,-13.94298 -1.60043,-3.27117 -4.62407,-5.43258 -8.26902,-5.91103 l -1.92897,-0.2532 -11.96944,-15.95864 -11.96945,-15.95864 1.68077,-0.54786 c 0.92443,-0.30133 9.51494,-3.03669 19.09002,-6.0786 l 17.40925,-5.53073 1.86353,0.96581 c 1.62656,0.84298 2.27394,0.96502 5.09076,0.95967 3.69676,-0.007 5.15896,-0.58156 7.40602,-2.91004 3.16055,-3.27506 3.83419,-7.83134 1.77599,-12.01215 -3.2585,-6.61896 -12.07694,-7.82246 -17.02143,-2.323 -0.86973,0.96735 -1.77445,2.2929 -2.0105,2.94567 l -0.42917,1.18685 -18.24685,5.80564 c -10.03574,3.1931 -18.52808,5.88233 -18.87183,5.97605 -0.58967,0.16079 -0.625,-0.92837 -0.625,-19.2674 v -19.43783 l 1.74132,-1.80658 c 7.2045,-7.47454 0.4572,-19.73998 -9.69921,-17.63152 -3.05779,0.63479 -5.52741,2.55708 -7.00275,5.45074 -1.04848,2.05644 -1.20851,2.71473 -1.19474,4.91464 0.0193,3.08693 1.15068,5.70381 3.30888,7.65361 l 1.41793,1.28102 v 19.46522 c 0,10.70586 -0.12422,19.46521 -0.27604,19.46521 -0.15183,0 -8.61367,-2.65178 -18.80409,-5.89286 -10.19043,-3.24107 -18.56521,-5.89285 -18.61062,-5.89285 -0.0454,0 -0.50966,-0.87294 -1.03166,-1.93986 -1.79588,-3.67066 -5.10931,-5.69778 -9.3133,-5.69778 -5.73442,0 -10.04671,4.03779 -10.44538,9.78049 -0.30211,4.35173 1.79482,8.03018 5.68614,9.9747 1.83992,0.91942 2.61045,1.09673 4.76595,1.09673 2.14066,0 2.92312,-0.17751 4.67284,-1.06008 l 2.10163,-1.06009 19.09738,6.07782 c 10.50356,3.3428 19.13142,6.11186 19.17304,6.15348 0.0416,0.0416 -5.28612,7.2256 -11.8394,15.96441 l -11.91506,15.88875 -1.89857,0.27409 c -5.64882,0.81551 -9.31075,4.99047 -9.31391,10.61877 -0.002,4.58097 2.59409,8.17295 7.13058,9.86372 2.20182,0.82062 6.01542,0.46351 8.29403,-0.77666 z"
           id="path1164"
           inkscape:connector-curvature="0"
           transform="scale(0.26458333)" />
      </g>
      <path
         transform="scale(0.26458333)"
         inkscape:connector-curvature="0"
         id="path827"
         d="m 190.31441,414.9609 c -5.66654,-2.90224 -7.22332,-9.72129 -3.28729,-14.39901 1.53321,-1.82211 4.75222,-3.459 6.83475,-3.47554 1.24242,-0.01 2.76588,-1.84066 13.7226,-16.49089 6.77877,-9.0639 12.22302,-16.74565 12.09835,-17.07056 -0.22084,-0.57549 -37.69386,-12.91665 -39.22047,-12.91665 -0.42195,0 -1.75796,0.44957 -2.96891,0.99906 -2.74617,1.24611 -5.1446,1.26826 -7.77846,0.0719 -7.08002,-3.21601 -7.1033,-13.56358 -0.0377,-16.77218 4.46042,-2.02556 8.95251,-0.52973 11.90882,3.96552 l 1.74865,2.65896 7.34272,2.33213 c 30.70422,9.75203 30.52426,9.70265 31.18967,8.55775 0.45134,-0.77659 0.61818,-6.18046 0.63134,-20.44991 l 0.0179,-19.39442 -1.75027,-1.69984 c -4.50198,-4.37227 -3.20208,-12.05304 2.50766,-14.81707 4.67072,-2.26106 9.75113,-0.47446 12.13068,4.26594 2.00455,3.99334 1.46455,6.94178 -2.01611,11.00815 l -1.78058,2.08022 0.0635,12.40972 c 0.0349,6.82535 0.20537,15.70535 0.37881,19.73333 0.29778,6.91585 0.37387,7.33197 1.36667,7.47385 0.8975,0.12827 34.1992,-10.10208 37.46074,-11.50801 0.62503,-0.26943 1.13642,-0.78388 1.13642,-1.14323 0,-0.35935 0.7226,-1.53 1.60577,-2.60144 1.70332,-2.06642 4.88665,-3.81029 6.98052,-3.82401 5.63228,-0.0369 10.32591,5.39681 9.4301,10.91703 -0.39562,2.43794 -2.48451,5.51434 -4.42596,6.5183 -1.84493,0.95405 -7.86715,0.80818 -10.30744,-0.24966 -1.40975,-0.61112 -2.86874,-0.22723 -20.96066,5.51524 -10.69499,3.39465 -19.60335,6.32059 -19.79636,6.50211 -0.19302,0.18152 5.32033,7.88723 12.25187,17.12382 11.52717,15.36045 12.72901,16.79378 14.08138,16.79378 3.33414,0 6.52489,2.2704 8.16292,5.80838 1.17932,2.54722 1.18364,4.50426 0.0156,7.0754 -2.7628,6.08156 -10.34842,7.61199 -14.94518,3.01523 -2.00145,-2.00145 -2.79388,-4.36996 -2.79787,-8.36256 l -0.003,-2.81763 -11.74302,-15.72269 c -6.45867,-8.64748 -11.9122,-15.73225 -12.11895,-15.74394 -0.20677,-0.0117 -5.74076,7.13047 -12.29777,15.87143 l -11.92185,15.89266 -0.10383,3.67904 c -0.12426,4.40303 -1.06557,6.45035 -3.79669,8.25772 -2.54839,1.68645 -6.69851,2.11605 -9.00917,0.9326 z"
         style="opacity:1;fill:#ffffff;fill-opacity:1;stroke:#000001;stroke-width:0;stroke-miterlimit:4;stroke-dasharray:none;stroke-opacity:1" />
      <path
         transform="scale(0.26458333)"
         inkscape:connector-curvature="0"
         id="path829"
         d="m 248.27523,508.20296 c -18.55312,-5.13783 -31.98469,-10.60301 -38.73234,-15.75982 -1.44067,-1.10101 -3.94079,-2.40592 -5.55584,-2.8998 -3.10275,-0.94882 -20.58575,-9.54213 -30.60528,-15.04323 -8.69616,-4.77452 -12.82433,-8.07408 -24.02501,-19.20271 -8.28916,-8.23583 -10.41937,-10.65168 -12.14665,-13.77543 -3.04061,-5.49885 -11.47925,-22.27017 -11.91145,-23.67331 -0.36271,-1.17756 -0.33233,-1.17219 1.83114,0.32351 1.20998,0.83651 4.47281,3.43377 7.25073,5.77169 15.30942,12.88452 22.72123,18.54169 33.15575,25.30659 5.23921,3.39668 7.15838,4.89843 6.25997,4.89843 -0.16081,0 -1.14018,-0.53501 -2.17638,-1.1889 -2.71356,-1.7124 -4.15684,-2.10057 -4.15684,-1.11798 0,0.43541 0.21662,0.79165 0.48138,0.79165 0.26476,0 0.8768,0.8333 1.3601,1.85176 1.37334,2.89412 12.89403,14.07975 19.97041,19.38962 12.19106,9.14774 21.84542,14.12605 36.01934,18.57351 4.44467,1.39463 11.37584,3.68918 15.40259,5.09899 7.33455,2.5679 10.60884,3.1576 10.60884,1.91062 0,-1.05059 -12.39887,-7.78728 -17.67767,-9.60484 -9.3547,-3.22092 -33.07957,-15.09652 -41.53382,-20.78994 -2.94549,-1.98361 -14.11751,-11.45437 -13.83969,-11.73219 0.10121,-0.10122 3.56711,2.18186 7.70198,5.0735 4.13489,2.89163 9.56353,6.43416 12.06365,7.87228 5.72165,3.29119 27.03554,13.99095 32.07235,16.10061 12.17365,5.09889 22.90174,8.71063 36.23922,12.20039 1.18062,0.3089 2.13378,0.83699 2.11813,1.17352 -0.0418,0.89874 -6.70229,11.64617 -7.29516,11.7715 -0.27779,0.0587 -6.07354,-1.43529 -12.87945,-3.32002 z"
         style="opacity:1;fill:#ffffff;fill-opacity:1;stroke:#000001;stroke-width:0;stroke-miterlimit:4;stroke-dasharray:none;stroke-opacity:1" />
      <path
         transform="scale(0.26458333)"
         inkscape:connector-curvature="0"
         id="path831"
         d="m 249.86028,490.36629 c -1.76725,-0.61304 -3.21362,-1.34189 -3.21415,-1.61968 -5e-4,-0.2778 4.62738,-2.25285 10.28425,-4.38902 11.57233,-4.36997 19.25973,-8.04839 25.94258,-12.41352 5.2731,-3.4443 13.7806,-10.33956 13.05539,-10.58129 -0.2724,-0.0908 -7.29877,3.15771 -15.61417,7.21891 -20.14304,9.83776 -24.03368,11.56503 -31.89627,14.16047 -7.84745,2.59044 -11.18871,3.08843 -14.00154,2.08684 l -1.98956,-0.70845 4.00987,-1.4251 c 16.45843,-5.8493 31.86019,-13.19042 48.20405,-22.97607 2.63902,-1.58007 7.52563,-4.31387 10.85913,-6.07511 7.94801,-4.19928 18.94733,-10.42697 27.98187,-15.84303 4.00055,-2.39827 7.58333,-4.36049 7.96173,-4.36049 2.7669,0 -9.93757,17.719 -18.83891,26.27474 -2.46278,2.36716 -6.29605,5.57081 -8.51839,7.11923 -6.46336,4.50337 -18.50874,11.78872 -20.70813,12.52481 -1.11116,0.37188 -5.42957,2.37449 -9.59644,4.45024 -8.33041,4.14984 -11.00387,5.23357 -15.90991,6.44933 -1.80565,0.44746 -3.62392,0.90542 -4.04061,1.01768 -0.41669,0.11226 -2.20354,-0.29745 -3.97079,-0.91049 z"
         style="opacity:1;fill:#ffffff;fill-opacity:1;stroke:#000001;stroke-width:0;stroke-miterlimit:4;stroke-dasharray:none;stroke-opacity:1" />
      <path
         transform="scale(0.26458333)"
         inkscape:connector-curvature="0"
         id="path833"
         d="m 194.56639,505.97313 c -1.12158,-1.71176 -3.86985,-8.38254 -3.86985,-9.39318 0,-1.00359 1.48667,-1.81269 6.9554,-3.78537 l 3.64547,-1.315 10.7313,5.43224 c 12.48182,6.31837 12.87463,5.3525 -3.14943,7.74416 -5.69473,0.84996 -11.08076,1.74438 -11.96896,1.98759 -1.37973,0.37781 -1.72106,0.28018 -2.34393,-0.67044 z"
         style="opacity:1;fill:#ffffff;fill-opacity:1;stroke:#000001;stroke-width:0;stroke-miterlimit:4;stroke-dasharray:none;stroke-opacity:1" />
    </g>
  </g>
</svg>
